<svg width="46.833282" height="42.003906" viewBox="0 0 46.8333 42.0039" fill="none" xmlns="http://www.w3.org/2000/svg" xmlns:xlink="http://www.w3.org/1999/xlink">
	<circle id="Ellipse 1" cx="28.833282" cy="24.003906" r="18.000000" fill="#D3F985" fill-opacity="1.000000"/>
	<path id="Vector" d="M40.35 15.7C40.45 16.46 40.49 17.23 40.5 18C40.5 21.36 39.56 24.66 37.78 27.51C36 30.37 33.46 32.67 30.44 34.16C27.43 35.64 24.05 36.25 20.71 35.91C17.36 35.57 14.17 34.3 11.51 32.25C16.24 31.09 21.79 28.7 26.97 25.72C32.49 22.55 37.15 19.02 40.35 15.7ZM44.45 5.38C43.02 2.9 39.23 2.35 33.48 3.75C30.82 1.69 27.64 0.42 24.29 0.09C20.94 -0.25 17.57 0.36 14.55 1.84C11.53 3.32 8.99 5.62 7.21 8.48C5.43 11.34 4.49 14.63 4.49 18C4.5 18.77 4.54 19.54 4.64 20.31C-0.55 25.69 -0.48 28.87 0.54 30.62C1.49 32.28 3.49 33 6.11 33C7.94 32.96 9.75 32.71 11.51 32.25C10.55 31.5 9.66 30.66 8.86 29.73C5.62 30.27 3.61 29.92 3.13 29.12C2.86 28.65 3.01 27.76 3.55 26.68C4.08 25.67 4.73 24.72 5.48 23.86C5.48 23.85 5.48 23.85 5.48 23.84L5.48 23.85C6.22 26.01 7.37 28 8.85 29.73C12.78 29.07 18.51 27.12 25.47 23.12C30.75 20.1 36.37 15.87 39.52 12.15C38.78 10 37.63 8 36.14 6.27L36.12 6.25C36.12 6.26 36.14 6.26 36.14 6.27C38.81 5.83 41.28 5.87 41.86 6.88C42.03 7.18 42.05 7.62 41.89 8.19C41.57 9.38 40.73 10.73 39.52 12.16C39.92 13.31 40.2 14.5 40.35 15.71C42.7 13.27 44.26 10.95 44.79 8.97C45.15 7.59 45.04 6.39 44.45 5.38Z" fill="#1D1E1C" fill-opacity="1.000000" fill-rule="nonzero"/>
</svg>

