<svg width="47.167358" height="37.505127" viewBox="0 0 47.1674 37.5051" fill="none" xmlns="http://www.w3.org/2000/svg" xmlns:xlink="http://www.w3.org/1999/xlink">
	<circle id="Ellipse 1" cx="29.167358" cy="19.505127" r="18.000000" fill="#FCBEDC" fill-opacity="1.000000"/>
	<path id="Vector" d="M25.5 4.5C25.5 4.1 25.65 3.72 25.94 3.44C26.22 3.16 26.6 3 27 3L45 3C45.39 3 45.78 3.16 46.06 3.44C46.34 3.72 46.5 4.1 46.5 4.5C46.5 4.9 46.34 5.28 46.06 5.56C45.78 5.84 45.39 6 45 6L27 6C26.6 6 26.22 5.84 25.94 5.56C25.65 5.28 25.5 4.9 25.5 4.5ZM45 12L27 12C26.6 12 26.22 12.16 25.94 12.44C25.65 12.72 25.5 13.1 25.5 13.5C25.5 13.9 25.65 14.28 25.94 14.56C26.22 14.84 26.6 15 27 15L45 15C45.39 15 45.78 14.84 46.06 14.56C46.34 14.28 46.5 13.9 46.5 13.5C46.5 13.1 46.34 12.72 46.06 12.44C45.78 12.16 45.39 12 45 12ZM45 21L31.5 21C31.1 21 30.72 21.16 30.44 21.44C30.15 21.72 30 22.1 30 22.5C30 22.9 30.15 23.28 30.44 23.56C30.72 23.84 31.1 24 31.5 24L45 24C45.39 24 45.78 23.84 46.06 23.56C46.34 23.28 46.5 22.9 46.5 22.5C46.5 22.1 46.34 21.72 46.06 21.44C45.78 21.16 45.39 21 45 21ZM18.99 16.13C20.48 14.98 21.57 13.39 22.11 11.6C22.65 9.8 22.62 7.87 22.02 6.09C21.41 4.32 20.26 2.77 18.73 1.68C17.21 0.58 15.37 0 13.5 0C11.62 0 9.78 0.58 8.26 1.68C6.73 2.77 5.58 4.32 4.98 6.09C4.37 7.87 4.34 9.8 4.88 11.6C5.42 13.39 6.52 14.98 8 16.13C4.14 17.76 1.09 21.06 0.04 25.13C-0.01 25.35 -0.02 25.58 0.03 25.8C0.07 26.03 0.17 26.24 0.31 26.42C0.45 26.6 0.63 26.75 0.84 26.85C1.04 26.95 1.27 27 1.5 27L25.5 27C25.72 27 25.95 26.95 26.16 26.85C26.36 26.75 26.54 26.6 26.68 26.42C26.82 26.24 26.92 26.03 26.97 25.8C27.01 25.58 27.01 25.35 26.95 25.13C25.9 21.05 22.85 17.76 18.99 16.13Z" fill="#1D1E1C" fill-opacity="1.000000" fill-rule="nonzero"/>
</svg>
